<svg width="189" height="84" viewBox="0 0 189 84" fill="none" xmlns="http://www.w3.org/2000/svg">
<path d="M1.77771 82.1483C7.09061 81.1928 12.4773 80.4262 17.6747 78.924C25.9138 76.5427 33.5083 72.2883 41.5863 69.416C43.1513 68.8596 62.0589 62.805 61.8013 64.0904C60.5732 70.2172 56.5876 75.1049 65.7389 72.9301C80.1026 69.5165 90.4 57.6938 103.724 52.12C107.354 50.6017 104.093 55.9845 106.371 56.7605C109.957 57.9822 115.036 52.7282 117.577 50.8165C120.673 48.4879 124.697 44.511 128.593 43.8104C131.6 43.2696 128.84 50.8208 132.899 49.4317C134.971 48.7224 144.569 39.6922 144.888 40.9713C146.987 49.3796 156.694 39.0217 159.254 36.1037C165.041 29.5077 158.651 43.8081 159.52 46.9741C160.452 50.3683 175.993 29.6923 178.066 28.4722C179.736 27.4891 176.671 45.1742 180.556 43.6937C186.125 41.5717 189.139 31.1677 192.502 26.2872C192.991 25.5769 193.943 26.7114 194.592 26.9163C198.386 28.1138 202.604 27.1202 206.331 26.45C208.862 25.9947 212.077 24.793 214.678 25.4514C217.342 26.126 219.157 29.6369 221.537 31.0703C229.157 35.6582 238.518 33.3051 245.956 30.3338C263.113 23.4795 278.787 12.4987 294.397 2.38965" stroke="#E00815" stroke-width="3" stroke-linecap="round"/>
</svg>
