<svg width="460" height="33" viewBox="0 0 460 33" fill="none" xmlns="http://www.w3.org/2000/svg">
<path d="M2 28.7074C10.1477 28.7074 18.3545 28.9063 26.4766 28.3477C39.3522 27.4622 51.7705 24.6192 64.5378 23.222C67.0113 22.9514 96.7165 20.3389 95.9903 21.5584C92.5293 27.3711 85.3028 31.4763 99.4783 30.9555C121.728 30.1381 140.183 20.3247 161.465 17.1971C167.263 16.3452 160.981 21.0659 164.158 22.2329C169.158 24.0699 178.106 19.7978 182.393 18.3661C187.614 16.6223 194.654 13.4203 200.628 13.4203C205.24 13.4203 199.122 20.3637 205.523 19.715C208.792 19.3838 225.462 12.1948 225.594 13.5103C226.466 22.1574 243.652 13.681 248.235 11.2622C258.594 5.7946 245.281 18.7382 245.726 22.0081C246.203 25.5135 274.814 7.9147 278.219 7.0807C280.962 6.40875 271.685 23.2721 277.852 22.5026C286.691 21.3998 293.948 11.6935 300.248 7.48536C301.165 6.8729 302.276 8.15791 303.185 8.47452C308.501 10.3246 315.031 10.0931 320.747 10.0931C324.63 10.0931 329.727 9.47945 333.414 10.5877C337.191 11.7232 338.95 15.4999 342.103 17.332C352.196 23.1961 366.73 22.5369 378.573 20.929C405.892 17.2198 432.11 9.18655 458 2" stroke="#E00815" stroke-width="3" stroke-linecap="round"/>
</svg>
