<svg width="92" height="35" viewBox="0 0 92 35" fill="none" xmlns="http://www.w3.org/2000/svg">
<path d="M17.6705 15.2757C17.8292 15.2757 17.9653 15.0947 17.988 15.0269C18.4416 13.8281 19.0085 12.5389 19.5755 11.6341C19.7569 11.3627 20.0744 10.8199 19.394 10.4806C19.258 10.4127 19.1673 10.3449 18.8951 10.2996C18.4642 10.2318 18.1921 10.8877 18.0787 11.1818C17.5118 12.652 17.2169 13.8507 17.1262 14.8459C17.1262 14.9138 17.1489 15.0947 17.2169 15.1626C17.353 15.2531 17.5344 15.2531 17.6705 15.2757Z" fill="black"/>
<path d="M42.2536 15.2757C42.4123 15.2757 42.5484 15.0947 42.5711 15.0269C43.0247 13.8281 43.5916 12.5389 44.1586 11.6341C44.34 11.3627 44.6575 10.8199 43.9771 10.4806C43.8411 10.4127 43.7504 10.3449 43.4782 10.2996C43.0473 10.2318 42.7752 10.8877 42.6618 11.1818C42.0948 12.652 41.8 13.8507 41.7093 14.8459C41.7093 14.9138 41.732 15.0947 41.8 15.1626C41.9361 15.2531 42.0948 15.2531 42.2536 15.2757Z" fill="black"/>
<path d="M91.6238 25.2278C91.0796 22.8076 83.5277 22.1969 74.842 24.0968C72.3021 24.6623 69.5807 25.4766 67.2902 26.3134C66.0429 26.7658 64.3874 27.7384 64.3874 27.7384C65.476 27.286 66.4511 26.9694 67.4036 26.6527C69.3766 25.9742 71.3496 25.4539 74.5245 24.7302C83.1876 22.7397 90.2632 23.1242 90.9662 25.2504C91.4197 26.6301 88.1541 30.2264 76.8377 32.6466C70.6466 33.9584 61.3032 33.9358 55.3162 29.4348C53.1844 27.8289 52.2773 25.0468 52.0052 22.4457C51.8918 21.3826 51.8237 19.3244 51.4609 18.8268C51.3021 18.6232 51.0527 18.3518 50.5311 18.3518C49.8281 18.3518 48.7395 19.0077 47.787 20.5684C47.4015 21.2243 46.3129 23.1469 46.2222 23.3052H46.1996C46.1996 23.3052 46.6078 20.8624 46.6531 19.5053C46.6985 17.8089 46.4037 17.1982 45.6099 17.1982C44.7028 17.1982 43.8184 18.5553 42.8205 20.5684C42.503 21.2243 41.6186 23.0564 41.5052 23.3052H41.4825C41.6639 22.1064 41.8907 20.7493 41.9361 19.5053C42.0041 17.8089 41.8227 16.4292 41.0289 16.4292C40.4847 16.4292 39.827 17.4244 39.4188 18.1708C38.8065 19.2791 36.9922 22.8981 36.8335 23.2373C36.584 23.7576 36.3346 24.0064 36.1758 24.0064C35.4955 24.0064 35.4955 22.129 36.0171 20.4327C36.3119 19.4827 36.6294 18.5101 37.4912 17.628C37.6499 17.4697 37.8994 17.2661 38.1715 17.1078C38.1261 17.0173 37.6499 16.5875 37.3097 16.4971C37.219 16.5423 36.2212 17.0851 35.178 16.3614C35.3821 15.7959 35.5862 15.0495 35.5635 14.3936C35.5408 13.5341 34.9966 12.9008 34.1575 13.0365C33.4771 13.1496 33.0689 14.0543 33.3864 15.0269C33.5452 15.4792 33.8627 16.1126 34.3843 16.7006C33.7493 18.0577 32.8195 19.9803 32.0257 20.6815C32.4339 18.578 32.2298 16.8363 31.1413 16.4745C30.0981 16.1126 28.5106 17.7637 27.6035 19.6184C27.354 20.1612 26.9005 21.1112 26.4696 21.9707C25.9934 22.9433 25.6759 23.8254 25.1996 23.8254C24.5419 23.8254 23.9296 22.6493 23.975 20.1386C24.542 19.0756 26.7871 14.2126 27.7622 11.6794C29.3043 7.69853 29.6672 4.69029 28.1931 5.09742C26.4016 5.59502 24.1564 11.4532 22.9318 17.2887C22.8864 17.0625 22.5009 16.5875 22.1154 16.4745C20.0744 15.8185 18.5549 19.8672 18.1694 20.9529C17.5344 22.3552 17.0808 23.8028 16.65 23.8028C15.9469 23.8028 15.9696 22.0386 16.4912 20.3874C16.6273 19.9124 16.9221 19.166 17.0355 18.5327C17.2169 17.5828 17.1035 16.7685 15.6748 16.4292C14.9945 16.2709 13.974 16.2256 12.6359 16.384C11.2753 14.6424 8.75797 13.1269 7.6921 11.5436C5.26554 7.90209 7.32926 5.23313 10.3681 4.26054C12.001 3.74032 12.8627 4.91647 12.84 5.75335C12.7947 6.95212 12.2277 8.12828 11.2072 9.32705C11.1165 9.44014 11.0938 9.59847 11.1845 9.71156C11.4794 10.1413 12.0463 10.5937 12.4545 10.8425C12.6359 10.9556 12.8627 10.8877 12.9761 10.7294C14.5863 8.49017 15.7202 3.42366 11.0711 3.24271C7.69211 3.107 4.63055 6.99736 4.97073 9.71156C5.35625 12.8329 7.76015 14.4614 9.68779 16.0899C9.95992 16.3161 10.1867 16.5423 10.3908 16.7685C9.57439 16.9268 8.71262 17.1304 7.78282 17.3792C2.45346 18.8494 0.389753 21.6767 0.231006 23.6897C0.0269028 26.2003 3.85951 28.2134 8.05496 26.6753C12.772 24.9337 14.178 20.4327 13.407 17.8089C13.339 17.6054 13.2482 17.3792 13.1575 17.1756C14.6543 17.0625 15.2212 17.2661 15.6068 17.628C16.1964 18.1708 15.0625 20.2517 14.9718 20.5005C14.6543 21.3826 14.4275 22.3778 14.4502 23.4183C14.4955 25.1147 15.0171 25.748 15.8109 25.748C16.5366 25.748 17.2623 24.8206 17.8066 23.4861C17.8746 24.5944 18.4642 25.748 19.6208 25.748C21.0268 25.748 21.8432 24.0742 22.6597 22.6493C22.9545 24.8885 23.7936 25.748 24.5646 25.748C25.5171 25.748 26.2201 24.4361 26.9912 22.5362H27.0139C26.8551 24.0968 27.1726 25.2504 28.1478 25.6575C29.3724 26.1551 30.7784 24.8885 31.6402 22.3326C32.4113 22.0386 33.0916 20.7719 33.976 19.0303C34.2255 18.5327 34.5657 17.8316 34.9285 17.1304C35.2233 17.3339 35.6542 17.5375 36.2212 17.628C35.3141 18.8268 34.0214 20.9755 34.0668 23.4409C34.1121 25.1373 34.6337 25.748 35.4275 25.748C36.1532 25.748 36.8789 24.8432 37.5365 23.4861C38.0128 22.5136 38.7158 21.0207 39.3281 19.9577C39.6683 19.3696 39.895 19.1208 40.0991 19.1208C40.7115 19.1208 40.5754 20.9529 40.1899 22.7171C39.9858 23.6218 39.6002 24.798 39.5095 25.0694C39.759 25.3182 40.7795 25.7027 41.165 25.7027C41.6413 24.798 44.1359 19.1434 44.8389 19.1434C45.4512 19.1434 45.2924 20.9755 44.9069 22.7397C44.7028 23.6445 44.3626 24.7075 44.2266 25.092C44.2719 25.2051 45.6099 25.748 45.8821 25.7254C46.1315 25.1373 46.4263 24.6171 47.0613 23.373C48.1726 21.1791 49.4198 19.5279 49.9868 19.5279C50.3496 19.5279 50.6445 19.7089 50.5991 20.591C50.5084 22.4231 50.6445 27.3991 54.5678 30.3395C56.6088 31.8549 59.3529 32.8501 62.0516 33.4608C67.3356 34.637 73.3226 34.0263 76.9511 33.2347C86.2945 31.1538 92.1454 27.6479 91.6238 25.2278ZM9.9826 22.6493C8.23638 25.0468 4.08629 26.2003 2.15865 25.1825C0.253684 24.1647 0.979383 20.2291 6.92105 18.2839C8.2137 17.8542 9.61974 17.5601 10.9124 17.3792C12.0009 19.0529 11.3886 20.7041 9.9826 22.6493ZM22.002 20.9529C21.4577 23.0112 20.664 24.1647 20.097 23.9385C19.4847 23.6671 19.5754 22.2195 20.097 20.3874C20.6186 18.6006 21.5258 17.1982 22.0474 17.3566C22.5916 17.5149 22.5009 19.0982 22.002 20.9529ZM25.5625 11.8829C26.515 8.51279 27.5355 6.86165 27.9663 6.77118C28.6013 6.63547 27.8756 9.01039 27.218 10.7068C26.583 12.3353 24.0203 18.6684 24.0203 18.6684H23.9523C23.975 18.6684 24.8368 14.5067 25.5625 11.8829ZM31.2773 19.822C30.7104 20.1612 30.3929 20.591 30.3929 20.591C30.3022 21.3374 30.3929 21.8576 30.6424 22.129C30.1434 23.4409 29.5538 24.1195 29.1003 23.9385C28.4879 23.6671 28.5787 22.2195 29.1003 20.3874C29.6219 18.6006 30.529 17.1982 31.0506 17.3566C31.5041 17.4923 31.5268 18.4875 31.2773 19.822Z" fill="black"/>
<path d="M55.3162 25.7027C55.7924 25.7027 56.1779 25.3182 56.1779 24.8432C56.1779 24.3683 55.7924 23.9837 55.3162 23.9837C54.8399 23.9837 54.4544 24.3683 54.4544 24.8432C54.4317 25.3182 54.8172 25.7027 55.3162 25.7027Z" fill="black"/>
<path d="M85.3194 11.8829V6.40925C85.3194 4.53193 83.5051 4.48669 82.9835 4.48669H77.2233C76.7244 4.48669 76.8151 5.05215 76.8151 5.27834C76.8151 5.27834 76.8151 25.2956 76.8151 25.4087C76.8151 25.5218 76.8604 25.6801 77.0872 25.6801H83.1423C84.7071 25.6801 85.3194 25.0015 85.3194 23.8028V15.7054C85.3194 14.2804 84.6617 13.6245 83.6639 13.6245C84.6617 13.6245 85.3194 12.5388 85.3194 11.8829ZM78.9695 5.18786H81.9177C82.4393 5.18786 82.6887 5.32357 82.6887 5.82118V13.0138C82.6887 13.1948 82.7114 13.3305 82.1671 13.3305H78.9468C78.8108 13.3305 78.8334 13.2174 78.8334 12.9912C78.8334 12.765 78.8334 5.57238 78.8334 5.43667C78.8561 5.30095 78.9695 5.18786 78.9695 5.18786ZM81.7589 24.9789H79.1056C78.8334 24.9789 78.8561 24.8206 78.8561 24.6396V14.3031C78.8561 14.1221 78.9241 13.8055 79.1056 13.8055H82.0311C82.3486 13.8055 82.6887 14.0769 82.6887 14.4614V24.0742C82.7114 24.4135 82.8248 24.9789 81.7589 24.9789Z" fill="black"/>
<path d="M69.4447 22.129C68.9911 21.9707 68.4695 22.1969 68.3108 22.6492C68.152 23.1016 68.3788 23.6218 68.8324 23.7801C69.2859 23.9385 69.8075 23.7123 69.9663 23.2599C70.1477 22.8076 69.8982 22.31 69.4447 22.129Z" fill="black"/>
<path d="M67.1542 22.1969C67.3356 22.1064 67.4037 21.9028 67.313 21.7445C67.2222 21.5862 67.0181 21.4957 66.8594 21.5862C66.6779 21.6766 66.6099 21.8802 66.7006 22.0385C66.7686 22.1969 66.9728 22.2873 67.1542 22.1969Z" fill="black"/>
<path d="M66.6553 23.5992C66.3831 23.7123 66.2697 24.0289 66.4058 24.3004C66.5419 24.5718 66.8367 24.6849 67.1088 24.5492C67.381 24.4361 67.4944 24.1194 67.3583 23.848C67.2449 23.5766 66.9274 23.4635 66.6553 23.5992Z" fill="black"/>
<path d="M72.1434 12.4257V5.66285L72.5969 4.82597C72.6877 4.64502 72.597 4.48669 72.3929 4.48669H67.2903C67.0862 4.48669 66.9955 4.64502 67.0862 4.82597L67.5851 5.7307V12.4257C67.5851 12.4484 67.5851 12.4936 67.5624 12.5162L66.0657 17.2887L63.7298 24.7754H61.6434C61.5754 24.7754 61.53 24.7301 61.53 24.6623V4.7355C61.53 4.59979 61.4393 4.50931 61.3032 4.50931H59.0354C58.8994 4.50931 58.8087 4.59979 58.8087 4.7355V25.2277C58.8087 25.4765 59.0128 25.6801 59.2622 25.6801H63.8886C64.07 25.6801 64.2741 25.5444 64.3194 25.3634L65.9296 20.1838C66.9501 20.41 68.3561 20.4552 69.5127 20.2291C70.2157 20.0934 70.9415 19.8219 71.5991 19.5505L72.7784 23.3278L73.2546 24.8206L75.8626 24.2777L72.1887 12.5388C72.1434 12.4936 72.1434 12.471 72.1434 12.4257ZM69.0818 19.166C68.084 19.4827 67.0862 19.5279 66.1564 19.4148L68.2881 12.5841V4.96168H69.422V12.5614L71.1682 18.1708C70.4425 18.6232 69.7395 18.9624 69.0818 19.166Z" fill="black"/>
</svg>
