<svg width="48" height="48" viewBox="0 0 48 48" fill="none" xmlns="http://www.w3.org/2000/svg">
<path d="M33.0091 25.345C32.7511 25.3779 32.4931 25.4109 32.2405 25.4438C34.1895 28.2657 35.6333 32.6248 30.8515 36.9179C25.7898 41.4637 17.7469 41.6119 14.6341 38.9932C10.6483 35.6388 13.1353 28.5457 26.8219 25.1144C24.2196 22.4408 20.146 20.4095 19.5641 15.6991C19.0535 11.5596 24.7796 5.49863 29.9402 6.55271C35.2326 7.63424 33.7338 14.4913 31.2853 17.5163C30.9888 17.2802 29.9457 16.3963 28.8696 15.4081C30.4178 13.7007 31.126 11.9878 31.2084 10.1926C31.2633 9.01772 30.3355 7.36523 27.8156 8.06795C25.636 8.67734 23.0722 11.0051 22.9185 13.2944C22.7044 16.55 24.3569 17.6864 29.3528 22.3145C29.3528 22.3145 30.2531 23.0118 31.2688 24.1921C38.9219 22.9404 44.077 23.8792 46.8 24.225C46.8 24.1482 46.8 24.0768 46.8 24C46.8 11.4059 36.5941 1.19995 24 1.19995C11.4059 1.19995 1.20001 11.4059 1.20001 24C1.20001 36.594 11.4059 46.8 24 46.8C36.0945 46.8 45.9875 37.3846 46.7506 25.4877C45.2848 25.3285 38.6199 24.6697 33.0091 25.345Z" fill="#E00815"/>
<path d="M15.7266 36.9892C20.1296 39.1468 28.4689 35.732 28.974 30.544C29.1442 28.7817 28.6391 27.4256 27.7771 26.2453C15.6387 28.9958 11.9989 35.1611 15.7266 36.9892Z" fill="#E00815"/>
</svg>
