<svg width="24" height="24" viewBox="0 0 24 24" fill="none" xmlns="http://www.w3.org/2000/svg">
<path fill-rule="evenodd" clip-rule="evenodd" d="M14.4018 10.1989C15.3723 9.46904 15.9999 8.30782 15.9999 7C15.9999 4.79086 14.2091 3 11.9999 3C9.7908 3 7.99994 4.79086 7.99994 7C7.99994 8.3053 8.62516 9.46457 9.59247 10.1947C10.2583 10.6973 11.0863 10.9965 11.984 11C11.9893 11 11.9946 11 11.9999 11C12.9013 11 13.733 10.7019 14.4018 10.1989ZM14.7798 12.3185C13.9277 12.1094 12.9988 12.0011 11.9999 12C11.9946 12 11.9893 12 11.984 12C10.9869 12 10.0603 12.1067 9.21078 12.3137C5.51306 13.2147 3.27446 16.0167 3.02361 20.198C3.00163 20.5644 2.99064 20.7476 3.10907 20.8734C3.2275 20.9991 3.41832 20.9991 3.79996 20.9991L20.2 21C20.5817 21 20.7725 21 20.891 20.8742C21.0094 20.7483 20.9983 20.5652 20.9762 20.1989C20.7235 16.0243 18.473 13.2248 14.7798 12.3185ZM9.99994 7C9.99994 8.10457 10.8954 9 11.9999 9C13.1045 9 13.9999 8.10457 13.9999 7C13.9999 5.89543 13.1045 5 11.9999 5C10.8954 5 9.99994 5.89543 9.99994 7ZM17.0169 15.6483C15.922 14.6494 14.2717 14 11.984 14C9.69667 14 8.05576 14.6491 6.96955 15.645C6.1242 16.42 5.48721 17.5217 5.18817 18.9992L18.8099 18.9999C18.5085 17.5259 17.8676 16.4245 17.0169 15.6483ZM3.57979 18.9971C3.5798 18.9971 3.58042 18.9971 3.58161 18.9972L3.57979 18.9971ZM5.00965 20.519C5.00966 20.5208 5.00965 20.5218 5.00964 20.5218C5.00963 20.5218 5.00963 20.5209 5.00965 20.519Z" fill="black"/>
</svg>
